<?xml version="1.0" encoding="UTF-8"?><svg id="Capa_2" xmlns="http://www.w3.org/2000/svg" viewBox="0 0 610.08 79.58"><defs><style>.cls-1{fill:#fff;fill-rule:evenodd;}</style></defs><g id="Capa_1-2"><g><path class="cls-1" d="M79.58,10.42c2.33-1.81,3.13-2.84,5.37-4.74,3.01-2.57,3.3-1.88,5.54-5.17-18.5-.05-23.81-1.48-36.4,8.12-4.02,3.07-8.35,6.94-12.13,10.43-2.23,2.07-3.77,2.94-6.16,5.14-3.53,3.25-1.79,3.06-7.56,3.44L33.02,.52C14.41,2.09,10.92,13.35,7.79,31.16,5.49,44.24,.55,64.55,0,76.95c17.58-1.26,20.74-10.75,24.45-26.81,6.21,.06,6.62,3.91,9.63,7.41,17.53,20.34,13.11,19.46,44.61,19.44,9.32,0,5.46-11.73,9.87-16.54,2.4,2.31,1.27-2.05,1.71,4.43,.3,4.43-2.62,8.01-3.83,11.34,20.71,5.4,6.42,3.15,14.01,1.18,5.09-1.32,26.08,3,36.17-19.31l-37.5-.17c2.63-7.65-1.81-12.76-.4-19.18,2.13-9.69,10.67-3.94,9.96-11.79-6.52-.65,.02,.32-6.63,2.7,1.2-6.24,3.54-7.84-1.49-10.56,.21-.29,.51-.61,.67-.85,4.27-6.36,1.7-6.62,5.03-9.63-3.98-1.12-7.55-5.49-10.51-1.3-3.96,5.61,3.59,6.52-3.55,8.89-7.17,2.38-5.08-.53-9.13,5.63-2.49,3.8-4.35,5.67-4.74,10.94l7.94,1.92c-2.16,11.67-1.49,2.85,2.69,17.74-9.19,9.09-8.49,9.8-16.85,10.35,.17,1.79,.96,4.65,.96,5.62-.03,6.33,.72,2.04-1.38,4.31-1.5-3.13-2.95-7.65-2.64-11.86,3.5-.08,6.24-.64,8.72-1.58-1.29-.77,.78-.25-2.64-.94l-9.82-.52c-6.06-.99-16.01-14.18-18.35-18.93L79.58,10.42Z"/><path class="cls-1" d="M170.87,29.05c-5.5-20.35,36.95-.69,52.78-14.5,3.49-3.04,7.64-6.87,8.32-13.77-15.35,0-30.71,.02-46.06,0-17.21-.02-26.51,1.45-32.21,13.85-5.88,12.81-5.22,27.9,6.26,32.12,10.11,3.72,34.05-1.3,42.58,2.55,2.66,10.48-4.91,9.05-13.24,8.99-15.53-.13-44.42-4.23-47.13,18.69,10.46,.29,58.84,1.83,67.18-2.23,16.2-7.88,21.12-38.31,4.93-43.88-9.55-3.29-32.23,.38-43.43-1.82"/><path class="cls-1" d="M549.41,20.82c14.46-5.54,57.47,8.5,60.67-20.06-10.79-.2-58.79-1.93-67.25,2.22-15.94,7.82-21.26,37.66-4.65,43.73,9.9,3.62,34.28-1.46,42.5,2.57,2.21,10.03-5.07,8.93-13.23,8.86-15.42-.13-45.53-3.46-47.08,18.76,16.07,.04,32.13-.03,48.2,.01,17.16,.04,27.11-3.45,31.12-17.07,4.67-15.84,3.42-28.65-13.01-30.17-7.21-.67-17.4-.15-24.9-.11-9.89,.06-16.24,2.15-12.39-8.75"/><path class="cls-1" d="M260.12,29.03c-1.6-10.33,2.97-9.72,12.7-9.63,18.35,.16,44.76,4.4,48.15-18.49-13.81-1.02-45.66-1.36-59.15-.1-20.8,1.94-21.57,22.14-23.78,34.97-8.04,46.63-6.31,42.71,69.38,41.07,2.98-15.46-7.48-19.07-21.04-19.02-18.75,.06-31.49,3.31-30.86-9.97l38.5-.22c1.93-23.23-18.15-15.19-33.9-18.62"/><path class="cls-1" d="M461.25,20.7c15.76-5.54,56.04,8.93,59.78-20-17.2,.01-43.39-1.57-59.5,.18-20.4,2.22-20.95,21.39-23.35,35.05-8.63,49.13-5.51,41.08,69.26,40.97,3.44-15.45-7.75-19.13-21.26-19.08-17.99,.07-31.24,3.32-30.54-9.98h38.47c2.14-25.07-20.17-14.88-34.4-19.14l1.54-8.01Z"/><path class="cls-1" d="M320.4,76.87c27.93-2.45,21.11-32.84,27.72-49.6,4.41-11.19,17.82-6.63,30.85-7.58,10.51-.77,19.83-8.81,20.61-18.98-12.9,0-25.8,.03-38.7,0-14.27-.04-22.14,1.47-28.06,11.25-3.33,5.5-12.69,56.6-12.42,64.92"/><path class="cls-1" d="M399.59,76.91c17.93-1.59,20.72-13.4,23.83-30.78,2.7-15.04,5.5-30.2,7.87-44.92-7.84-1.11-14.59,4.65-17.91,8.9-4.06,5.18-4.75,13.28-6.15,21.07-2.09,11.64-7.54,35.2-7.65,45.73"/></g></g></svg>