<svg xmlns="http://www.w3.org/2000/svg" viewBox="0 0 650.17 320.76"><defs><style>.cls-1,.cls-2{fill:#fff;}.cls-2{fill-rule:evenodd;}</style></defs><g id="Capa_2" data-name="Capa 2"><g id="Capa_1-2" data-name="Capa 1"><path class="cls-1" d="M179.75.49h25.4l10.71,53.56H197.33l-1.75-9.8H175l-4.44,9.8h-18.5Zm11.23,11L179.59,34h15l-3.45-22.49Z"/><polygon class="cls-1" points="228.62 0.5 246.44 0.5 240.25 41.2 266.63 41.2 264.81 54.03 220.6 54.03 228.62 0.5"/><polygon class="cls-1" points="396.53 0.5 419.86 0.5 424.54 54.03 406.69 54.03 404.03 16.33 403.87 16.33 387.8 54.03 366.69 54.03 362.56 15.41 362.4 15.41 349.39 54.03 331.97 54.03 351.77 0.5 374.5 0.5 379.23 40.65 379.39 40.65 396.53 0.5"/><polygon class="cls-1" points="550.61 0.5 566.68 0.5 558.63 54.03 533.71 54.03 517.64 15.65 517.48 15.65 512.28 54.03 495.3 54.03 503.35 0.5 527.44 0.5 544.42 39.74 544.58 39.74 550.61 0.5"/><path class="cls-1" d="M277,51.06c-4.88-2.9-7.18-7.81-5.64-16.07l2.82-15.44c1.54-8.28,5.67-13.25,11.63-16.15S299.51,0,308.39,0,324.75.5,329.66,3.4s7.11,7.87,5.59,16.15L332.4,35c-1.51,8.26-5.59,13.17-11.47,16.07s-13.76,3.45-22.65,3.45S281.93,54,277,51.06m37.58-17.14L317.12,21c1.59-8.41-1.46-9.25-10.95-9.25-9,0-12.85.76-14.52,9.25l-2.54,12.93c-1.67,8.57,1.62,9.33,10.95,9.33s12.85-.84,14.53-9.33"/><path class="cls-1" d="M435.55,51.06c-4.89-2.9-7.19-7.81-5.65-16.07l2.82-15.44c1.55-8.28,5.67-13.25,11.63-16.15S458,0,466.93,0,483.28.5,488.19,3.4s7.11,7.87,5.59,16.15L490.94,35c-1.52,8.26-5.59,13.17-11.47,16.07s-13.77,3.45-22.66,3.45-16.35-.55-21.26-3.45m37.57-17.14L475.65,21c1.6-8.41-1.46-9.25-10.95-9.25-9,0-12.85.76-14.52,9.25l-2.54,12.93c-1.67,8.57,1.6,9.33,10.95,9.33s12.86-.84,14.53-9.33"/><path class="cls-1" d="M146.93,0c9,0,11.49,3.45,10.11,10.42l-1.7,8.42H138.72l.94-4.6c.6-3.06.05-3.74-4.6-4.05-1.3-.08-3.84-.16-5.82-.16-3.22,0-6.51.08-8.29.24-2.82.31-3.52.91-3.73,2.06-.39,1.91-.08,2.77,4.13,4.84l26,12.77c5.12,2.54,5.75,4.16,5,8.05l-1.07,5.22c-1.67,8.18-4.21,11.24-14.92,11.24h-30C96.29,54.45,92.48,51,94,43.35l1.54-7.66h15.94l-1.07,5.36c-.31,1.54.21,2.53,2.43,2.92a53.14,53.14,0,0,0,8.52.39c2.82,0,6-.07,8.17-.23,2.77-.24,3.4-.71,3.69-2.3.39-1.85-.08-2.53-5.67-5.28l-19.23-9.43c-7.58-3.76-9-6.66-7.94-11.73l1-5C103,2,106,0,117,0Z"/><path class="cls-1" d="M570.15,320.61V313h2.59a4,4,0,0,0,2.9-1.23,5.23,5.23,0,0,0,1.57-2.85l1.33-7.29a3.76,3.76,0,0,0-.6-2.82,2.89,2.89,0,0,0-2.48-1.25h-5.31v-7.66h10.61a6.18,6.18,0,0,1,6.43,6.43,7.84,7.84,0,0,1-.08,1.31L584.37,313a9.16,9.16,0,0,1-3.16,5.43,8.62,8.62,0,0,1-5.83,2.23ZM614,312.87l2-11.55a3.2,3.2,0,0,0-.62-2.69,3,3,0,0,0-2.46-1.12H605a4.79,4.79,0,0,0-4.47,3.68L598.48,313a9.2,9.2,0,0,1-3.19,5.43,8.72,8.72,0,0,1-5.88,2.23l4.21-23a9.16,9.16,0,0,1,3.21-5.52,8.89,8.89,0,0,1,5.91-2.22h15.41a6.42,6.42,0,0,1,4.63,1.81,6,6,0,0,1,1.88,4.54,9.59,9.59,0,0,1-.13,1.39l-4.21,23a6.41,6.41,0,0,1-4.65-1.75,6.16,6.16,0,0,1-1.86-4.6,6.69,6.69,0,0,1,.19-1.39m-43.85-23v7.66h-2.56a4,4,0,0,0-2.87,1.23,5.22,5.22,0,0,0-1.57,2.87l-1.36,7.26a3.7,3.7,0,0,0,.61,2.83,2.77,2.77,0,0,0,2.48,1.25h5.27v7.66H560a6.43,6.43,0,0,1-4.68-1.81,6.09,6.09,0,0,1-1.88-4.62,8,8,0,0,1,.13-1.31l2.69-15.28a9.37,9.37,0,0,1,3.21-5.44,8.6,8.6,0,0,1,5.83-2.3Zm-52.82,30.76v-.74l5.3-29.94a6.18,6.18,0,0,1,4.55,1.73,6,6,0,0,1,1.75,4.49,7,7,0,0,1-.13,1.36,3.63,3.63,0,0,0,.62,2.82,2.84,2.84,0,0,0,2.46,1.25h11.68a7,7,0,0,1,4.75,1.65,5.42,5.42,0,0,1,1.94,4.39,6.31,6.31,0,0,1-.13,1.31l-2,11.68a6.34,6.34,0,0,1-4.57-1.73,6,6,0,0,1-1.8-4.49,9.7,9.7,0,0,1,.13-1.39,3.72,3.72,0,0,0-.6-2.85,2.82,2.82,0,0,0-2.48-1.22h-7.87a4.12,4.12,0,0,0-2.92,1.25,5.06,5.06,0,0,0-1.62,2.82,9,9,0,0,1-3.24,5.41,9.1,9.1,0,0,1-5.8,2.2m0-30.05a5.43,5.43,0,0,0,.13-.58h-.13Zm0-.58v.58a9.32,9.32,0,0,1-3.19,4.81,9.12,9.12,0,0,1-5.93,2.22,4.16,4.16,0,0,0-2.9,1.25,5,5,0,0,0-1.57,2.82l-3.4,19.1h-7.81l3.34-19.1a3.66,3.66,0,0,0-.62-2.82,2.87,2.87,0,0,0-2.46-1.25,6.43,6.43,0,0,1-4.6-1.7,6.06,6.06,0,0,1-1.77-4.55,8.31,8.31,0,0,1,.13-1.36Zm0,29.89-.14.74h.14Zm-49.28-10.73v-7.56h5.33a2.27,2.27,0,0,0,2.43-2,1.7,1.7,0,0,0-1.73-2h-6v-7.66h9.59a6.18,6.18,0,0,1,6.42,6.43,8.13,8.13,0,0,1-.07,1.31l-4.05,23a6.74,6.74,0,0,1-4.73-1.75,6,6,0,0,1-1.91-4.6,8.36,8.36,0,0,1,.13-1.39,3,3,0,0,0-.65-2.61,3,3,0,0,0-2.48-1.12Zm0-19.29v7.66h-5.31a2.26,2.26,0,0,0-2.43,2,1.82,1.82,0,0,0,.37,1.46,1.62,1.62,0,0,0,1.33.57h6v7.56h-5.64a4.44,4.44,0,0,0-2.88,1.07,4.19,4.19,0,0,0-1.57,2.66,9.24,9.24,0,0,1-3.13,5.51,8.49,8.49,0,0,1-5.62,2.23v-.92l3.89-22.1a9.44,9.44,0,0,1,3.22-5.44,8.58,8.58,0,0,1,5.82-2.3Zm-18.84.81c.05-.28.11-.55.16-.81h-.16Zm0-.81v.81a8.92,8.92,0,0,1-2.93,4.65,8.55,8.55,0,0,1-5.82,2.2h-7.87a4.16,4.16,0,0,0-2.87,1.25,5,5,0,0,0-1.57,2.85L426.09,313a9.33,9.33,0,0,1-3.16,5.41,8.67,8.67,0,0,1-5.78,2.2l4.08-23.1a9.32,9.32,0,0,1,3.13-5.44,8.64,8.64,0,0,1,5.78-2.22Zm0,29.84-.18.92h.18Zm-50.43-10.55v-7.56h5.31a2.24,2.24,0,0,0,2.43-2,1.64,1.64,0,0,0-.37-1.44,1.62,1.62,0,0,0-1.33-.6h-6v-7.66h9.59a6.13,6.13,0,0,1,4.6,1.81,6.28,6.28,0,0,1,1.83,4.62,7.84,7.84,0,0,1-.08,1.31l-4.07,23a6.74,6.74,0,0,1-4.73-1.75,6.74,6.74,0,0,1-1.75-6,3.2,3.2,0,0,0-.66-2.61,3.05,3.05,0,0,0-2.5-1.12Zm0-19.29v7.66h-5.33a2.24,2.24,0,0,0-2.4,2,1.81,1.81,0,0,0,.34,1.46,1.68,1.68,0,0,0,1.36.57h6v7.56h-5.64a4.57,4.57,0,0,0-2.9,1.07,4.47,4.47,0,0,0-1.57,2.66,9.31,9.31,0,0,1-3.11,5.51,8.53,8.53,0,0,1-5.8,2.23l4.08-23a9.27,9.27,0,0,1,3.21-5.44,8.6,8.6,0,0,1,5.83-2.3Zm-117.13,26v-3.06l2.67-15.23a8.76,8.76,0,0,1,3.27-5.41,9.25,9.25,0,0,1,6-2.2h23a9.2,9.2,0,0,1-3.11,5.41,8.61,8.61,0,0,1-5.8,2.2H294.22a2.22,2.22,0,0,0-2.38,2c-.26,1.35.29,2,1.65,2h6a6.15,6.15,0,0,1,4.46,1.68,5.68,5.68,0,0,1,1.78,4.36,6.68,6.68,0,0,1-.13,1.23H290.22l-.07.26a2.82,2.82,0,0,0,.54,2.66,3.2,3.2,0,0,0,2.54,1.15h11.68a6.26,6.26,0,0,1,4.6,1.75,6.11,6.11,0,0,1,1.77,4.55,8.55,8.55,0,0,1-.13,1.38h-23a6.75,6.75,0,0,1-4.73-1.77,5.91,5.91,0,0,1-1.73-3m0-25.22c.06-.26.11-.55.16-.81h-.16Zm85.08,22.19,2.06-11.53a3.33,3.33,0,0,0-.57-2.69,3,3,0,0,0-2.51-1.12h-3.53l-4.08,23.1h-7.86l4.05-23.1h-3.61a4.76,4.76,0,0,0-4.46,3.68L344.13,313a9.1,9.1,0,0,1-3.19,5.43,8.69,8.69,0,0,1-5.85,2.23l4.2-23a9.17,9.17,0,0,1,3.22-5.52,8.89,8.89,0,0,1,5.9-2.22H371a6.43,6.43,0,0,1,4.68,1.78,6,6,0,0,1,1.82,4.57,8.36,8.36,0,0,1-.13,1.39l-4.12,23a6.64,6.64,0,0,1-4.71-1.75,6.1,6.1,0,0,1-1.88-4.6,11.76,11.76,0,0,1,.11-1.41m-85.08-23v.81a9,9,0,0,1-2.9,4.65,8.6,8.6,0,0,1-5.82,2.2h-7.87a4.1,4.1,0,0,0-2.87,1.25,5,5,0,0,0-1.59,2.85L258.53,313a9,9,0,0,1-3.16,5.41,8.64,8.64,0,0,1-5.77,2.2l4.07-23.1a9.21,9.21,0,0,1,3.16-5.44,8.53,8.53,0,0,1,5.78-2.22Zm0,23,0,.18a5.69,5.69,0,0,0-.13,1.31,8,8,0,0,0,.15,1.57Zm-68.14,2.85v-2.8l4.21-23a6.42,6.42,0,0,1,4.63,1.81,6,6,0,0,1,1.88,4.54,6.69,6.69,0,0,1-.19,1.39l-2,11.55a3.44,3.44,0,0,0,.57,2.71,3,3,0,0,0,2.51,1.15H233a4.46,4.46,0,0,0,2.88-1.07,4.35,4.35,0,0,0,1.59-2.66l2.06-11.76a9.31,9.31,0,0,1,3.19-5.44,8.78,8.78,0,0,1,5.88-2.22l-4.21,23a9.1,9.1,0,0,1-3.21,5.51,8.85,8.85,0,0,1-5.91,2.23H219.89a6.46,6.46,0,0,1-4.65-1.75,6,6,0,0,1-1.73-3.19m0-25.08c.06-.21.11-.42.16-.61h-.16Zm0-.61v.61a9.76,9.76,0,0,1-9.11,7,4.13,4.13,0,0,0-2.88,1.25,4.93,4.93,0,0,0-1.57,2.82l-3.42,19.1h-7.81l3.37-19.1a3.75,3.75,0,0,0-.63-2.82,2.88,2.88,0,0,0-2.48-1.25,6.34,6.34,0,0,1-4.57-1.7,6,6,0,0,1-1.78-4.55,8.31,8.31,0,0,1,.13-1.36Zm0,22.89a9.59,9.59,0,0,0-.13,1.39,9.12,9.12,0,0,0,.13,1.41Zm-68.08,7.74v-1.44l3.94-21.58a9.16,9.16,0,0,1,3.21-5.52,8.91,8.91,0,0,1,5.91-2.22H173.9a6.41,6.41,0,0,1,4.63,1.81,6,6,0,0,1,1.88,4.54,8.36,8.36,0,0,1-.13,1.39l-4.21,23a6.41,6.41,0,0,1-4.65-1.75,6.15,6.15,0,0,1-1.85-4.6,7.36,7.36,0,0,1,.18-1.39l2-11.55a3.24,3.24,0,0,0-.63-2.69,3,3,0,0,0-2.46-1.12h-7.89a4.71,4.71,0,0,0-4.47,3.68L154.23,313a9.15,9.15,0,0,1-3.19,5.43,8.66,8.66,0,0,1-5.61,2.23m0-29.53a10.34,10.34,0,0,0,.26-1.1h-.26Zm0-1.1v1.1a9.29,9.29,0,0,1-2.85,4.31,8.52,8.52,0,0,1-5.8,2.2H123.32a2.21,2.21,0,0,0-2.35,2c-.26,1.35.29,2,1.65,2h6a6.14,6.14,0,0,1,4.44,1.68,5.68,5.68,0,0,1,1.78,4.36,6.68,6.68,0,0,1-.13,1.23H119.32l0,.26a2.75,2.75,0,0,0,.55,2.66,3.1,3.1,0,0,0,2.51,1.15H134a6.26,6.26,0,0,1,4.6,1.75,6.11,6.11,0,0,1,1.77,4.55,8.55,8.55,0,0,1-.13,1.38h-23a6.68,6.68,0,0,1-4.72-1.77,5.94,5.94,0,0,1-1.91-4.6,8,8,0,0,1,.13-1.31l2.69-15.41a8.84,8.84,0,0,1,3.29-5.41,9.16,9.16,0,0,1,6-2.2Zm0,29.19-.27,1.44h.27Zm-90,1.44V313H58a4.08,4.08,0,0,0,2.9-1.23,5.21,5.21,0,0,0,1.56-2.85l1.31-7.29a3.79,3.79,0,0,0-.57-2.82,2.91,2.91,0,0,0-2.49-1.25h-5.3v-7.66H66a6.2,6.2,0,0,1,6.43,6.43,7.84,7.84,0,0,1-.08,1.31L69.6,313a9.11,9.11,0,0,1-3.16,5.43,8.56,8.56,0,0,1-5.82,2.23Zm28.37-8.91a1.56,1.56,0,0,0,.4,1.33,1.73,1.73,0,0,0,1.33.57,2.4,2.4,0,0,0,1.59-.62l10.85-12.31a8.77,8.77,0,0,1,6.71-3.16h5.83l-16.86,19.1a11,11,0,0,1-8.46,4H74.65l5.46-30.76a6.07,6.07,0,0,1,6.29,6.27,5,5,0,0,1-.13,1.34ZM35,297.59l-4.08,23a6.61,6.61,0,0,1-4.7-1.75,6,6,0,0,1-1.91-4.6,6.67,6.67,0,0,1,.13-1.39,3.1,3.1,0,0,0-3.16-3.73H19v-7.56h5.3a2.24,2.24,0,0,0,2.43-2,1.69,1.69,0,0,0-1.69-2H19v-7.66h9.59A6.2,6.2,0,0,1,35,296.28a7.84,7.84,0,0,1-.08,1.31m20.43-7.74v7.66h-6.3L47,308.87a3.73,3.73,0,0,0,.6,2.83A2.79,2.79,0,0,0,50.11,313h5.28v7.66h-18l5.43-30.76ZM19,309.14H13.38a4.46,4.46,0,0,0-2.88,1.07,4.31,4.31,0,0,0-1.59,2.66,9.21,9.21,0,0,1-3.11,5.51A8.46,8.46,0,0,1,0,320.61l4.08-23a9.37,9.37,0,0,1,3.21-5.44,8.53,8.53,0,0,1,5.83-2.3H19v7.66h-5.3a2.25,2.25,0,0,0-2.43,2,1.74,1.74,0,0,0,.34,1.46,1.68,1.68,0,0,0,1.36.57h6Z"/><path class="cls-2" d="M519.79,145q-15.48,0-26-9.93t-10.51-25.42a45.13,45.13,0,0,1,.74-7.73h130q15.84,0,26,10.13t10.12,26a53,53,0,0,1-.37,7.37l-3.68,21.37q-2.94,18-18.24,30t-33.71,12H530.24c-13.77,0-20.38,9.17-22.18,23.33h83.37q15.48,0,26,9.95t10.5,25.42a36.82,36.82,0,0,1-.62,7.16H453.5l11.42-65.5q2.94-17.67,17.48-29.47A50.44,50.44,0,0,1,515,167.87h75.11c7.63,0,12.15-3.82,13.64-11.42a9.67,9.67,0,0,0-2-8.1,9.25,9.25,0,0,0-7.55-3.32Z"/><path class="cls-2" d="M318.79,144q2.43-14.69-5.25-26.49c-5.25-8.07-13-13-23.12-14.89a44,44,0,0,0-7.74-.68L271,165.68c-1.86,10.14-.16,19.44,5.12,27.51s13,13,23.1,14.89a43.86,43.86,0,0,0,7.73.68h63.46c1.55,0,22.26-1.07,17.85,23.6l-7.55,42.27c27.33,1.1,48.18-22.18,51.91-43.45l22.76-129.25c-33.73,0-49,28.19-51.47,42.43-2.14,12.78-11.71,23.51-25.61,23.51H337.16c-13.51.08-21.48-7.52-18.74-21.5.11-.78.24-1.59.37-2.38"/><path class="cls-2" d="M211.26,101.94h1.54l-1.54,1.34Zm0,166.2V258c2.48-8.75,6-18.37,10.82-25.79l0-.07h93.74c-10.81,19.46-33,42.53-61.5,42.53H214.94a38.11,38.11,0,0,1-3.26-4.7c0-.11-.19-.86-.42-1.78m-15,6.48H147.61q-26.54,0-41.3-18.08L71.24,214.11A4.56,4.56,0,0,0,67.87,213c-3.45,0-5.49,1.59-6,4.8l-2.48,14c-4.49,25-26.73,42.8-52.15,42.8L30.17,145.47c4.28-23.8,28.09-43.53,52.28-43.53L72,158.69c-.5,3.5,1,5.23,4.6,5.23a6.73,6.73,0,0,0,4.23-1.46L130.29,120c14-12,29.68-18.08,47.34-18.08h33.63v1.34l-99,85,30.86,37.65c6.08,7.39,18,6.17,26.49,6.17h14.58a30.79,30.79,0,0,1-8,5.59c-.29-.42-1.73.55-2.17.7-1-.89-5.33-.34-7.81-.21-.63,0-1.23.06-1.83.06a2.51,2.51,0,0,0-2.25,0,31.57,31.57,0,0,0,1.36,8.83c1.78,2.17,1.49,2.82.91,5.44a53.11,53.11,0,0,0,3.09,9.19c.91,1.86,4.2,5.73,6.35,2.46-.53-2.19-1.36-3.55-1.07-5.54.33-2.4,1.38-4.26,2.24-6.43.21-.26,4.16-4.33,3.06-4.25-.05,0-.08-.08-.13-.11.49-.5.89-.84.7-1.12,3.27-2.82,20.1-9,25.77-11.08-3.27,8.05-1,19.75-3.87,25.68-.52.08-.65.94-1.18,2.25-1.3.34-2.84,3.58-4.18,5.72-.31.5-.65,1-1,1.54-1.05.86-.84.63-1.26,1.86a31.26,31.26,0,0,0,3.35,1.93m15-16.67c-.55,2-1.07,3.89-1.52,5.75.19.18-.1.84,0,1.36a1.42,1.42,0,0,1,.16-.05c.37-.6.94,1.49,1.36,3.13Z"/><path class="cls-2" d="M199.11,178.49h0v-8.42c1.17.71,2.4,1.36,3.58,1.94l1-12.47a39.93,39.93,0,0,1-4.6,4.52V144.52c2.32-3,5-5.54,9.46-6,4.25-.31,5.59-1.17,8.49-1.09,2.27,0,5-.4,5.27-3.09.24-1.93-.65-4.62-.65-6.84a9.6,9.6,0,0,1,1-10.4,11.74,11.74,0,0,1,9.8-3.84,10.38,10.38,0,0,1,8.6,6.58c6.27.89,9.85,1.49,6.53,3a55.63,55.63,0,0,1-6.06.08,20.21,20.21,0,0,1,.16,2.92,5.23,5.23,0,0,1-.84,1.67l0,.06a17.42,17.42,0,0,1,1.93,2.77c0,.39-.73.88-1.49,1.3a1.65,1.65,0,0,0,0,1.44,1.35,1.35,0,0,1-.42.76l-.08.23s.32.76-.08.84c-.07.26-.65,1.36-.65,1.36a2.82,2.82,0,0,1,.16,1.83c-.29.65-.81.7-1.41.68a27.87,27.87,0,0,1-4,.44c-1,.1-1.33,1-1.1,2s1.49,1.55,2,2.15c3.68,1.7,7.16,4.7,4,14.21A40.05,40.05,0,0,1,236,169.11a20.52,20.52,0,0,0,7.81-3.69c.47-.6.71-2.3,1.86-3.73l.41-.53a3.53,3.53,0,0,1,2.83-.76c1.67.87,2.45-.23,3,.27a1.85,1.85,0,0,1,.5,1.72c-.16.55.49.47.73.84.7,1.12,0,1.25.08,1.85.13,1.13.62.68-.16,1.7-.47.6.55.86-.24,1.85l-.28.4a8.6,8.6,0,0,1-3,1.62c-1,.26-2.59.21-3.19.57-4.63,2.77-9.2,6-14,8.21-1.91,5.93-3.17,11.52-2.41,14.21l-1.28,1.28v1.28c.34.37,3.27,12.59,4.39,21.45.08.42-.78.42-.73.84a61.74,61.74,0,0,1,.63,7.68,4.9,4.9,0,0,1-.81,2.69c-.29.42-1.62,2.25-2,2.79-5.69,9.25-9.3,20.54-11.5,30.65.21.16-.05.84.06,1.36a.3.3,0,0,1,.15-.05c.53-1,1.81,4.54,1.91,4.86,1.39,1.91,2.38,3.76,4.21,5.35a10.88,10.88,0,0,0,4.52,2.59c1.88,3-2.22,4.65-5.33,3.82-2.75-.74-6-1.78-8.86-2.67-1.88-1.91-2.27-2.48-5.07-2.17a31.65,31.65,0,0,1-8.18-3.63c.4-1.23.19-1,1.23-1.88.32-.52.6-1.05.92-1.57,1.25-2.17,2.71-5.46,4-5.85.5-1.31.6-2.17,1.13-2.27,2.69-6,.15-16.41,3.18-24.56a143.4,143.4,0,0,0-13.37,7.05V226.53a21.66,21.66,0,0,1,9.95-5.77,17.75,17.75,0,0,0-.52-3c-.52.08-.37,0-.94.13-2.25-10.61-6.82-16.46-7.26-23v-1.28a6,6,0,0,0-1.23-.94v-3.63l1.23-1.83a4.7,4.7,0,0,1,1.28-3.84,9.13,9.13,0,0,0,1.09-4.34l-3.6-.57m0,0a49.49,49.49,0,0,1-10.77-2.8,12,12,0,0,1-2.3-1.23,1.67,1.67,0,0,1-.47-.44,3.87,3.87,0,0,1-.62-.87,6,6,0,0,1-1.28-3.23c-.34-3.19,10.39-18.66,11.94-20.65,1.22-1.59,2.32-3.24,3.5-4.75v19.54a35.86,35.86,0,0,1-4.6,3.24c1.44.84,3,1.83,4.6,2.77Zm0,64.19c-5.49,3.19-10.74,6.51-12.39,8,.19.26-.18.63-.68,1.15a.36.36,0,0,1,.13.08c1.1-.11-2.71,4.08-2.92,4.34-.81,2.19-1.78,4.07-2.07,6.5-.23,2,.66,3.35,1.26,5.52-2.07,3.34-5.46-.45-6.43-2.28a51.66,51.66,0,0,1-3.34-9.12c.49-2.64.73-3.29-1.1-5.4a32.2,32.2,0,0,1-1.59-8.78,2.44,2.44,0,0,1,2.22-.08l1.83-.13c2.5-.19,6-.84,7.08,0,.44-.16,1.85-1.15,2.14-.76,9.43-5.07,11.55-10.74,15.86-15.21Zm0-50c-.76-.47-1.36-.76-1.36-1.62l1.36-2Z"/></g></g></svg>