<?xml version="1.0" encoding="utf-8"?>
<!-- Generator: Adobe Illustrator 26.5.0, SVG Export Plug-In . SVG Version: 6.00 Build 0)  -->
<svg version="1.1" id="Layer_1" xmlns="http://www.w3.org/2000/svg" xmlns:xlink="http://www.w3.org/1999/xlink" x="0px" y="0px"
	 viewBox="0 0 749.8 377.9" style="enable-background:new 0 0 749.8 377.9;" xml:space="preserve">
<style type="text/css">
	.st0{fill-rule:evenodd;clip-rule:evenodd;fill:#FFFFFF;}
	.st1{fill:#EDD900;}
	.st2{fill:#FFFFFF;}
</style>
<g id="Capa_1">
</g>
<path class="st0" d="M39.9,324h30.4c5.8,0.2,10.9,0.5,15.2,5c3.9,4.2,4.4,9.1,4.4,12.4c0,4.4-0.9,9.3-5,13.6
	c-4.4,4.6-9.3,4.8-15.2,5h-13v17.3H39.9V324z M56.8,335.2v13.6h9.7c0.9-0.1,1.9-0.1,2.8-0.4c2.6-0.8,4.1-3.3,4.1-6.5
	c0-6.2-4.9-6.6-7-6.7H56.8z"/>
<path class="st0" d="M103.5,324.1h19.1l19.9,53.2h-18.1l-2.3-7.4h-18.6l-2.3,7.4H83.2L103.5,324.1z M113,339.2l-5.8,18.8h11.5
	L113,339.2z"/>
<path class="st0" d="M138,324h43.8v13.2h-13.5v40.1h-16.8v-40.1H138V324z"/>
<path class="st0" d="M200.1,324.1h19.1l19.9,53.2h-18.1l-2.3-7.4h-18.5l-2.3,7.4h-18.1L200.1,324.1z M209.6,339.2l-5.8,18.8h11.5
	L209.6,339.2z"/>
<path class="st0" d="M281.8,372.2c-2.4,1.8-7,5.1-16,5.1c-4,0-7.3-0.7-10-1.9c-5-2-16.1-9.2-16.1-25.8c0-15.3,9.9-29.1,28.4-29.1
	c8,0,16.2,2.8,21.5,8c3.2,3.1,4.2,6,5.1,8.5l-15.1,4.2c-0.4-1.7-0.8-3.5-2.4-5.1c-1.6-1.6-4.3-2.8-7.8-2.8c-4,0-6.8,1.5-8.4,3.1
	c-4.2,3.8-4.2,10.2-4.2,12.6c0,3.2,0.2,8.3,4,12.1c3.3,3.5,7.2,3.5,9,3.5c1.5,0,5.4-0.1,8-2.9c1.4-1.5,1.7-2.9,2-4.6H270v-10.7h24.4
	v29.4h-12.6V372.2z"/>
<path class="st0" d="M358.3,348.4c0,13.5-7.9,28.9-28.8,28.9c-21.8,0-28.3-16.1-28.3-28.3c0-15.2,9.4-28.6,28.6-28.6
	C350.8,320.4,358.3,335.7,358.3,348.4z M318,348.9c0,9.3,3.8,14.9,11.8,14.9c6.8,0,11.5-5.3,11.5-15.4c0-2.6-0.2-4.9-1-7
	c-2.6-7.4-9-7.6-10.5-7.6C323.7,333.8,318,337.9,318,348.9z"/>
<path class="st0" d="M364.9,324.1h17.9l12,20.1c3,5.5,3.8,7.1,6.5,13.1c-0.5-5.2-0.5-6.3-0.7-12.3v-20.9h15.8v53.2h-18.1l-10.8-18.4
	c-3.1-5.3-4-6.9-7.4-14c0.4,4.8,0.4,6,0.5,10.9v21.6h-15.7V324.1z"/>
<path class="st0" d="M426.4,324.1h16.9v53.2h-16.9V324.1z"/>
<path class="st0" d="M469.4,324.1h19.1l19.9,53.2h-18.1l-2.3-7.4h-18.5l-2.3,7.4h-18.1L469.4,324.1z M478.9,339.2l-5.8,18.8h11.5
	L478.9,339.2z"/>
<path class="st0" d="M531.2,324h26.5c5.1,0,9.9,0.3,13.1,1.7c7.1,3,9.2,10.3,9.2,15.4c0,2-0.2,6.8-4.1,10.7
	c-2.1,2.3-4.4,3.1-6.9,4.1l13,21.5h-18.7l-10.3-18.8h-5v18.8h-16.9V324z M548.1,335.1v12.4h7c2.8,0,8.1-0.1,8.1-6.2
	c0-6.1-5.3-6.3-8.2-6.3H548.1z"/>
<path class="st0" d="M587.2,322.6h16.9v33.2c0,2.3,0.1,4.6,2,6.4c1.3,1.4,3.4,2,5.3,2c2.6,0,4.4-1,5.4-1.9c2-1.9,2-4.2,2-6.5v-33.2
	h17V351c0,6.1,0,14-6.2,20c-3.9,3.6-10,6.3-18.2,6.3c-7.8,0-14.6-2.6-18.6-6.3c-5.3-5.1-5.4-11.1-5.5-16.7V322.6z"/>
<path class="st0" d="M646.8,324.1h17.8l12,20.1c2.9,5.5,3.8,7.1,6.5,13.1c-0.4-5.2-0.5-6.3-0.7-12.3v-20.9h15.8v53.2h-18.1
	l-10.8-18.4c-3.1-5.3-4-6.9-7.4-14c0.4,4.8,0.5,6,0.5,10.9v21.6h-15.7V324.1z"/>
<path class="st1" d="M226.9,57.4l-14.5,32.2L170,0.4L36,294.2h303.6L226.9,57.4z M171.2,116.2l42.5,89.1c0.6,0,7-13.8,14.5-30.6
	l34.1,71.6H111.8L171.2,116.2z"/>
<g>
	<g>
		<path class="st2" d="M698.8,279.3c-3.2,0-5.9,2.6-5.9,5.9c0,3.2,2.6,5.9,5.9,5.9c3.2,0,5.9-2.6,5.9-5.9
			C704.7,281.9,702.1,279.3,698.8,279.3z M698.8,289.6c-2.5,0-4.5-2-4.5-4.5c0-2.5,2-4.5,4.5-4.5c2.5,0,4.5,2,4.5,4.5
			C703.4,287.6,701.3,289.6,698.8,289.6z"/>
		<path class="st2" d="M701.3,283.9c0-1.2-0.8-1.9-2.1-1.9h-2.3v6.1h1.3v-2.2l0.6,0l1.5,2.2h1.5l-1.6-2.4
			C700.8,285.4,701.3,284.7,701.3,283.9z M698.2,283.2h0.8c0.8,0,0.9,0.4,0.9,0.8c0,0.2,0,0.8-0.9,0.8h-0.9V283.2z"/>
	</g>
	<path class="st2" d="M367.7,207.5c-0.1-4.6,0-9.5,0-11.2c0-3.2,0.3-5.1,1-5.4c3.2-1.1,6.9-1.8,11.4-2.5c4.4-0.7,9.2-1.3,11-1.3
		c0.3,0,0.5,0,0.8,0c0.1,0.2,0.1,0.8-0.3,2.6c0,0.2-0.7,4.7-0.9,6.6c-0.4,2.9-0.7,6-1.5,8.9c-0.7,2.7-1.4,5.5-1.6,8.7
		c0,0-0.2,2.5-0.2,3.5c-0.1,1.2,0.3,2,0.7,2.4c0.4,0.5,1.1,0.7,1.7,0.7c1.2,0,2.7-0.1,3.3-2.3c0.8-2.8,1.5-5.3,2.2-8.7
		c1-4.4,3.2-13.2,3.2-13.2c0.4-1.7,1.8-7.8,2.1-9.1c0.2-1.5,1.6-6.6,1.9-7.6c0.6-1.7,1.4-6.2,1.8-8c1-4.9,1.2-6.6,1.9-11.2
		c0.5-3.2,1-5.9-0.5-7.8c-0.7-0.9-2-0.9-3.4-0.1c-1.2,0.7-1.8,0.8-2.6,1.7c-0.7,0.8-1.3,1.5-2.2,2c-1,0.6-1.3,2.9-1.3,5.5
		c0,0.6-0.4,3.2-0.4,3.7c-0.7,5.4-1.4,8.4-2.1,12.8c-0.4,2.2-0.4,2.5-2.2,2.5c-2.3,0-4.2,0.1-6,0.3c-2.2,0.2-13.7,0.9-16.5,1.2
		c0.3-2.1,0.6-6,0.9-8.1c0.5-4.1,0.8-9,1.1-10.8c0.8-4.9,1.6-6.9,0.8-8c-0.7-0.8-2.9-2.1-4.1-2.1l-0.9,0.1c-4.4,0.2-4.6,3.6-4.8,7.2
		c-0.2,2.9-1,9.5-1.5,15.7c-0.2,2.9-0.6,6.8-0.6,6.8c-0.1,0.8-0.4,1.2-0.9,2c-0.3,0.6-1,2.8-1,4.1c-0.1,1.5,0,2.6,0.8,3.1
		c0.6,0.4,0.3,1.5,0.4,2.1c0.1,1.7,0.1,4.7,0.1,5.6c0,1.6-0.1,3.3-0.2,5.1c-0.1,4.3-0.5,10.6,1.3,13.2c0.5,0.8,1.3,1.3,2.2,1.3
		c2.1,0,3.4-1,4.5-2.1c1-0.9,1.3-1.2,1.3-3.6C368.4,213.9,367.7,208.4,367.7,207.5z"/>
	<path class="st2" d="M412,196c0.2,0.4,0.7,0.6,0.7,0.6c-0.1,0.3-1,2.8-1,2.8c-1.4,3.9-2.8,7.4-3.9,11.5c-0.8,2.8-1.8,6.1-1.1,8.1
		c0.4,1.1,1.6,1.2,2,1.2c1,0,2-1,3.5-3.8c2-3.7,3.1-7,3.7-8.4c0.3-0.9,1.2-3.5,1.6-4.6c1.8-5.2,2.8-7.1,2.8-7.1
		c1.8-0.4,4.6-0.9,7.1-1.4c2.8-0.6,8.6-1.4,11.5-1.8c0,0,1.7-0.3,2.5-0.3c1,0,1.5-0.2,1.6-0.1c0.1,0.1,0.3,6,0.3,7.3
		c0,0.8,0,3,0,4.5c0,1.2,0.1,3.2,0.2,4.3c0.1,0.8,0.1,2.7,0.1,3.5c0,2.6,0.3,6.6,2.4,6.6c0.5,0,1.1-0.2,1.6-0.8
		c1.2-1.2,1.6-4.1,1.9-6.3c0.1-0.7,0.3-2.4,0.3-2.9c0.2-2.7,0.5-6.2,0.5-8.2c0-2.1,0-3.4,0-4.4c0-4.2-0.4-4.5,0.4-5.1
		c1.4-1.1,2.1-2.8,2-4.4c-0.2-1.5-1.1-1.9-1.7-2c0-0.6-0.1-1.6-0.1-2.2c-0.1-3.4-0.2-6.8-0.6-10c-0.4-3.6-1-7-1.6-8.8
		c-0.9-2.8-3.2-5.4-6.1-6.8c-0.3-0.2-0.7-0.3-1.1-0.5c0-0.8-0.6-1.5-1.6-2.6c-0.9-0.9-3.5-1.4-4.8-1.4c-1.2,0.1-2.1,0.8-2.7,1.6
		c-0.4,0.6-0.6,0.4-1.2,0.7c-0.8,0.4-1.8,0.8-2.4,2.2c-0.4,0.9-0.9,1.9-0.9,3.2c-0.3,0.9-0.6,1.6-2.2,5.1c0,0-3.5,7.8-4.2,9.3
		c-0.8,1.6-3.8,9.2-4.2,10.2c-0.2,0.6-0.7,2.1-1.1,3.1c0,0-0.4,0.3-0.8,0.5c-1.1,0.6-2.4,1.6-3.2,4.5C411.5,194.5,411.6,195,412,196
		z M426.4,181.8c1.4-2.9,3.7-7.5,5.2-10.2c1.9-3.3,4.7-8.6,5.6-8.3c3.5,1.3,4,6.4,4.5,9.4c0.3,2.1,0.6,5.8,0.8,7.6
		c0.1,0.6,0.3,2.7,0.4,3.7c0.1,1.3,0.1,1.6,0.1,1.6c-4.8,0.7-15.7,1.7-19.1,1.9C423.8,187.6,425.5,183.7,426.4,181.8z"/>
	<path class="st2" d="M464.7,219c0.4,0,1.1-0.4,1.6-1.1c1.1-1.5,1.4-2.5,1.9-4.4c0.3-1.2,0.5-2.5,0.9-4.2c0.2-0.7,0.5-2.6,1-4.9
		c0,0,1.2-5.7,1.6-6.9c1,0.9,3.7,2.7,5.7,4c1.6,1.1,3.4,2.2,4.4,2.9c1.6,1.1,3.3,2.2,4.9,3.4c0,0,4.7,3.4,6.5,4.4
		c1.6,0.9,8.4,4.4,10.8,4.4c0.4,0,0.8-0.1,1.1-0.4c0.6-0.7,0.7-1.1,0.5-2c-0.2-1.1-0.6-2.5-1.5-3c-1-0.5-4-2.7-5.4-3.8
		c-0.7-0.5-6.1-4.8-6.1-4.8c-6.2-4.6-7-5.4-10.1-7.6c-2.9-2.1-5.5-3.8-5.5-3.8c-2.8-1.9-3-2.5-3-2.5s6.3-1.7,8.2-2.3
		c0.9-0.3,3-0.9,3.7-1.2c1.4-0.5,3.2-1.1,4.7-1.8c0.9-0.4,1.7-0.8,2.5-1.2c2.9-1.3,4.9-2.6,7.1-4.5c5.4-4.5,7-9.3,3.8-14.2
		c-3.6-5.7-10.8-7.9-16.3-9.6c-2.6-0.8-7.5-1.3-10.8-1.3c-3.2,0-6.1,0.5-7.9,1.3c-3.9,1.6-3.5,6.4-3,10.9c0.2,1.7,0.3,3.4,0.2,4.8
		c-0.1,1.5-0.1,3-0.1,4.3c0,1.5,0,3-0.1,4.5c0,0.5-0.1,1.2-0.1,1.9c-0.1,2.8-0.3,4.4-0.4,4.8c-1.3,1.2-1.8,2.3-2.1,4
		c-0.2,1.2,0,2.3,0.5,3.5c0.2,0.4,0.6,1.6,0.6,1.6c-0.9,3.4-2,11.2-2.5,15.7c-0.4,3.1-0.5,7.3,0.7,8.6
		C463.3,219,464.4,219,464.7,219z M475.4,173.8c0.2-1.3,0.1-2,0.5-3c0.5-1.3,0.7-2.6,0.4-3.7c-0.3-1-1-1.9-1.9-2.6
		c-0.5-0.3-1.1-1.4-1.1-1.9c0-0.5,0.2-1.5,1.2-1.6c2.7-0.5,6.5-0.5,8.1-0.3c3.8,0.6,7.9,1.7,12,5.2c1.2,1,2,2.7,1.7,4.1
		c-0.5,2.5-1.7,4.1-6,6.5c-4.4,2.3-12.7,4.9-15.6,5.8C474.6,180.7,474.8,177,475.4,173.8z"/>
	<path class="st2" d="M551.5,194.9c4.8-7.9,7.1-21.2-0.4-27.6c-9.4-8-21.7-11.6-31.6-13.8c-0.7-0.2-3.7-0.9-5.3-0.8
		c-1,0.1-1.9,0.1-2.3,0.6c-1,1.5-0.2,5.5-0.1,5.5c0.7,2.2,6.7,3.8,7.2,4.1c0.8,0.5,0.8,1.8,0.3,2.6c-0.2,0.4-0.7,0.9-1.4,1.4
		c-0.9,0.8-1.7,3.5-2.2,6.6c-0.4,3.1-0.3,4.6-0.7,7.6c0,0-0.5,6.5-0.7,8c-0.5,3.6-1.3,12-1.3,12c-0.9,10.1-0.2,11.6,0.9,11.9
		c2,0.5,2.9-1.2,3.4-2.7c1.2-3.9,2-5.4,2.8-8.2c0.6-2.2,0.9-4.1,1.1-5.3c0.6-3.1,0.9-5.9,1.7-10.7c1.6-8.9,3-21.3,3.9-21.1
		c9.4,1.7,16.9,5.8,20.4,12.3c3.2,6.1-2.9,15.6-5.1,19c-1.4,2.1-2.5,4.1-4.8,6.3c-2,1.9-3.7,3.4-9.4,6.2c-2,1-4.7,1.9-5.9,2.4
		c-1.3,0.5-3.6,1.4-4.8,2.4c-1.1,0.9-2,2.4-0.5,4.1c0.7,0.9,2,1,2.7,0.9c0.7,0,1.2,0,2.7-0.3c4.3-0.8,10.4-3.2,14.3-6.1
		c3.9-2.9,7.7-6.9,10.1-10.1C548.9,199.1,550.1,197.1,551.5,194.9z"/>
	<g>
		<path class="st2" d="M449.3,252.4c-3.6,0.2-6.5,0.4-10.1,1.1c-1.8,0.3-3.7,0.7-5.7,1.3c-0.9,0.3-2.4,0.7-3.2,0.9
			c0.6-2.5,1.2-5.9,2-8.7c0.4-1.5,1-3.1,1.4-4.7c0.8-2.7,1.2-3.9,2.1-6.3c0.5-1.3,1.1-1.5,2.3-1.6c0,0,4.9-0.6,5.2-0.6
			c3.4-0.5,6.6-0.5,9.1-0.5c1.2,0,4,0.2,4.2,0.2c2.6,0,3.6-1.5,3.8-4.1c0.1-1.2,0.5-2.2-0.3-3c-1.1-1.2-2.4-1.6-5.3-1.6
			c-2.2,0-5.6,0.1-7.9,0.3c-0.8,0.1-1.9,0.2-2.4,0.2c-5.1,0.4-8.8,2.1-11.4,4.2c0,0-0.8,0.6-0.9,0.7c-1.9,1.4-4.8,3.6-5.9,8.5
			c-0.3,1.5-1,3.6-1.8,6.3c-0.5,1.7-1.1,4.1-1.8,6.3c-0.6,2.1-1.1,4.1-1.4,6.5c0,0,0,0,0,0c-0.5,0.3-1.5,0.9-1.8,3.5
			c-0.2,1.5,0.2,2.3,1.1,2.8c-0.5,3.5-0.9,9.2-1.1,12.4c0,0.1-0.3,8.8,0.6,10.4c0.7,1.3,1.2,1.5,2.3,2c0,0.1,1.4,1,3.7,1
			c1.2,0,2.8,0.2,4.8-0.1c1.6-0.2,3.9-0.5,6.2-0.7c0.1,0,12.7-1.5,14.9-5.4c0.4-0.7,0.3-1.1,0.4-2.1c0.1-0.8,0.3-1,0.4-1.2
			c0.6-1.1,0.7-1.3,0.2-2c-0.1-0.2-0.4-0.6-1.2-0.6c-0.3,0-0.6,0.1-0.9,0.2c-1,0.3-1.5,0.4-2.8,0.8c-1.5,0.4-4.2,1.1-5.7,1.5
			c-2.5,0.6-5.4,0.8-6.9,0.8c-0.6,0-3,0.1-3.6,0.1c-0.5,0-2.4-0.1-2.8-0.1c-0.6,0-1.2,0-2,0.2c0.2-1.3,0.3-2.7,0.5-5.7
			c0.3-2.8,0.9-8.9,1.3-11.6c0.1-0.6,0.6-0.6,1.2-0.8c1.6-0.4,4.4-0.8,6.3-1c1.3-0.2,7.1-0.9,8.1-1c2.7-0.3,4.2-0.3,5.4-0.3
			c1.8-0.1,2.8,0.2,3.5-0.6c0.6-0.7,0.6-1.3,0.7-2.5c0.1-0.7,0.5-1.1,0.7-1.4c0.4-0.5,0.8-1.1,0.6-2
			C455,252.3,450.8,252.4,449.3,252.4z"/>
		<path class="st2" d="M417.6,226.7c-0.3-0.4-0.7-0.7-1.2-0.7c-4.7-0.5-6.2,7.6-7.5,13.8c-1.3,6.2-3.6,14.7-5.4,20.1
			c-0.6,1.9-2,5.8-2.6,6.9c-3.4,7.4-8.3,12.1-8.7,10.1c-1.2-8.7-0.7-21.1,0.4-28.9c1.1-7,2.7-13,1-14.5c-1.1-0.9-1.4-1.3-3.2-0.7
			c-4.8,1.6-4.7,4.7-5.5,8.9c-0.8,4.1-1.5,7.1-2.7,11c-2,6.5-3.6,11.6-6.3,16.8c-2.7,5.1-4.6,9.4-5.1,6c-2.4-11.7-3.1-21.3-3.1-31
			c0-2.3,0-3.5,0.3-5.9c0.1-1.1,0.2-2.6,0.3-3c0.1-1.2,0.3-2.5,0.2-4.3c-0.1-2.4-1.6-6-5.1-6c-0.8,0-1.6,0.3-2.3,0.9
			c-3,2.4-2.9,6.4-3.1,10.7c0,0-0.2,5.2-0.1,7.6c0.1,2.4,0.2,4.8,0.6,7.5c0.2,1.9,0.7,3.9,1.1,4.6c0.5,0.7,0.5,2.4,0.6,3.1
			c0.1,0.5,0.2,1.6,0.2,1.9c0.4,2.1,0.6,4,1,6.2c0,0,0.6,4.2,0.8,5.7c0.4,2.8,1.5,9.7,1.5,10c0.4,2.1,1,5.1,2.8,6.6
			c0.5,0.4,1.1,0.6,1.7,0.6c3-0.2,5.3-2.2,6.5-4.4c2.1-3.8,3.8-7.4,4.9-9.8c0.7-1.6,1.4-3.4,2.2-5.1c0.3-0.8,0.8-1.8,1.1-2.5
			c0,0.7,0,1.4,0.1,2.2c0.1,4.9,0.3,12.6,2,16.1c0.8,1.7,2.4,2.6,4.4,2.6c2.8,0,5.7-1.9,7.2-3.6c5-5.4,8.8-12.2,10.8-17.6
			c1.6-4.3,2.7-8,3-8.9c2.1-7,4.8-16.9,6.3-22.7C418.2,231.5,418.5,228,417.6,226.7z"/>
		<path class="st2" d="M504,256.2c0-0.8-0.1-4.4-0.1-4.7c0.1-3.8-0.1-5-0.4-10.1c-0.3-5.1-1.1-10.1-4.3-12.2
			c-0.9-0.6-2.9-2.4-5.7-3.3c-1.8-0.6-3.1-1-3.7-0.9c-0.4,0.1-1.2,0.1-1.7,0.2c-1.9,0.6-3.7,0.8-6.1,6c-0.7,1.5-1.2,2.3-2.5,4.5
			c-0.5,1-1.5,3-2.7,5.4c-0.4,0.8-1.3,3.4-1.6,4.1c-2,4.6-2.9,7-4.5,12.2c-0.4,1.3-0.9,2.3-0.9,2.3c-1.1,0.4-2.7,3-3.2,4.8
			c-0.2,0.8-0.6,2.3,0,3.1c0,0-1,3.1-1.2,3.5c-1.2,3-2.2,6.2-2.9,8.8c-0.3,0.9-0.5,1.9-0.9,3.1c-1.3,4.5-0.9,6.1-0.5,6.8
			c0.3,0.4,0.7,0.7,1.4,0.7c2.3,0.1,3.6-2.6,5.3-6c0,0,1.3-2.8,1.5-3.2c0.7-1.2,1.6-4,2.4-6.7c0.6-1.9,2.2-6.5,2.6-7.1
			c1.3-0.3,2.4-0.4,3.4-0.6c1.5-0.3,4.5-0.8,7.7-1.4c3.2-0.6,8.4-1.2,10.3-1.5c0,2.2-0.1,2.7-0.3,4.6c-0.3,2.6-0.4,4.9-0.2,8.2
			c0.1,1.4,0,2.6,0.2,4.9c0.1,1.4-0.2,3.4,0,6.1c0.1,3,2.4,3.8,3.5,3.8c0.3,0,1-0.1,1.4-0.5c1.2-1.5,1.1-5.3,1.5-8.5
			c0.4-2.7,0.2-5,0.5-7.2c0.5-3.5,0.9-10.2,0.9-10.2c0-1.4,0-1.7,0.1-3c0.2-0.1,0.7-0.2,1.1-0.8c0.7-1.1,0.8-2.5,0.6-3.5
			C505,257,504.8,256.7,504,256.2z M496.1,255.2c0,0,0,2,0,2h0c-4.3,0.5-15.1,1.2-17.9,1.5c1-3.1,2.4-6.8,2.7-7.3
			c0.5-1.1,1.2-2.8,2.9-6.5c1.7-3.8,2.4-5,3.7-7.2c1.3-2.2,2.4-4.2,3.2-4.6c0.8-0.4,2,0.8,3,1.9c2,2.2,2.8,6,2.6,9.5
			c-0.1,1.4-0.1,3-0.1,4.5c0,0.8,0,2.1-0.1,3.3C496.1,252.3,496.1,254,496.1,255.2z"/>
		<path class="st2" d="M551.5,281.5c-0.9-0.8-2.3-2.2-3.7-3.5c-1.6-1.6-4.9-4-6-5c-2.7-2.4-5.9-4.8-9.4-7.4
			c-3.5-2.5-4.3-3.1-4.9-3.5c0,0,0,0,0,0c0.7-0.4,4-1.3,6.4-2.1c2.7-0.9,6-2,11.9-4.8c4.1-2,6-3,9-6c4-4,1.9-11.3,0.3-13.9
			c-2.1-3.5-6.4-7.4-13.2-9.1c-3.8-1-10.5-1.9-15.2-1.9c-0.7,0-2.2,0.1-2.7,0c-2.8-0.2-4.6-0.9-6,2.7c0,0-1.7,2.2,0.5,4.3
			c0,0-0.1,4.3-0.2,7.6c0,1.1-0.1,3.2-0.2,5.5c0,2-0.1,3.9-0.1,4.8c-0.1,0.9-0.1,1.9-0.1,3c0,1.8,0,3.6-0.3,4.9
			c-0.1,0.1-0.4,0.4-0.5,0.5c-1.8,1.4-2,4-1.4,5.4c0.2,0.5,0.7,1.5,0.7,1.5c0,0.9-0.6,3.8-0.8,4.8c-0.2,1.1-1,7.9-1.1,9.2
			c-0.3,2.8,0.1,9.4,0.1,9.5c0.2,1.5,1.1,2.6,2.3,2.6l0,0c1,0,2.2-0.5,2.6-2.7c0.3-1.6,1-5.6,1.7-9.4c0.2-0.8,0.7-3.6,0.9-4.5
			c0.3-1.3,0.8-3.6,1-4.8c0.6,0.2,3.8,2.6,7.4,5c6.4,4.3,12.6,9.1,20.3,13.5c0.4,0.2,0.8,0.5,1.2,0.8c1.2,0.8,3.3,1.8,4.2,1.8
			c0.8,0,1.6-0.5,1.8-0.9C558.3,288.9,558.1,287.5,551.5,281.5z M525.5,244.6c0-1.4,0.1-6.7,0.1-7.1c0.7-5.3-0.5-5.9-0.5-5.9
			c1.5,0,2,0,3.3,0.1c2.6,0.2,8.4,0.6,11.7,1.8c9.2,3.3,9.6,6.8,8.1,10.3c-1.8,4.2-7.9,6.2-18.6,9.7c-0.9,0.3-4.6,1.7-4.5,1.4
			C525.5,250.7,525.5,247.6,525.5,244.6z"/>
	</g>
	<path class="st2" d="M527.2,106.8v19.5c0,0-0.5-1.1-0.8-1.5l-14.1-18h-6.1V138h6.8v-20.2c0,0,0.5,1.1,0.8,1.5l14.5,18.7h5.7v-31.2
		H527.2z"/>
	<path class="st2" d="M691.1,106.8v19.5c0,0-0.5-1.1-0.8-1.5l-14.1-18h-6.1V138h6.8v-20.2c0,0,0.5,1.1,0.8,1.5l14.5,18.7h5.7v-31.2
		H691.1z"/>
	<path class="st2" d="M373.6,120.9c0,0-0.2-1.2-0.3-1.4l-8.1-12.7l0-0.1h-7.2V138h6.8v-20.8c0,0,0.5,1.2,0.7,1.6
		c0.2,0.3,8,12.2,8,12.2c0.1,0.1,0.1,0.1,0.2,0c0,0,7.9-11.9,8-12.2c0.2-0.4,0.7-1.6,0.7-1.6V138h6.8v-31.2h-7.2l-8,12.8
		C373.8,119.8,373.6,120.9,373.6,120.9z"/>
	<path class="st2" d="M423.1,106.3c-9.3,0-16.6,7.1-16.6,16.1v0.1c0,9.2,7.1,16,16.5,16c9.3,0,16.6-7.1,16.6-16.1v-0.1
		C439.7,113.2,432.6,106.3,423.1,106.3z M414,122.3c0-5.4,3.9-9.4,9.1-9.4c5.2,0,9.1,4.1,9.1,9.5v0.1c0,5.4-3.9,9.4-9,9.4
		C417.9,131.9,414,127.8,414,122.3L414,122.3z"/>
	<path class="st2" d="M477.6,124.7c0,4.6-2.3,7.2-6.5,7.2c-4.1,0-6.4-2.6-6.4-7.4v-17.6h-7.2v17.8c0,9,4.8,13.9,13.5,13.9
		c8.8,0,13.7-5,13.7-14.1v-17.6h-7.2V124.7z"/>
	<polygon class="st2" points="554.8,113.4 564.1,113.4 564.1,138 571.3,138 571.3,113.4 580.7,113.4 580.7,106.8 554.8,106.8 	"/>
	<path class="st2" d="M613,106.8h-6.7L593.1,138h7.3l2.8-6.9H616l2.8,6.9h7.5L613,106.8z M614.4,126.2h-9.6l4.8-12L614.4,126.2z"/>
	<rect x="642.1" y="106.8" class="st2" width="7.2" height="31.2"/>
	<g>
		<path class="st2" d="M696.5,181.7l-40.7-31.6l-67.6,13l-26.1,44.4l40.7,31.6l67.6-13L696.5,181.7z M657.1,200.1
			c-2.6-1.4-5.4-2.4-8.4-3c-7.7-1.6-17.4-1.5-27.9,2.8c-2.9,1.2-5.7,2.8-8.2,4.6c-2.5,1.8-4.7,3.9-6.5,6.1c-1.1,1.3-2,2.8-2.7,4.2
			c-1.6-0.9-3.2-1.9-4.5-3.1c0.1-1.5,0.4-3.1,1.1-4.7c0.8-2,2.2-4.1,4-6.1c1.6-1.8,4.2-3.9,6.5-5.5c2.5-1.7,5.4-3.1,8.3-4.3
			c8.7-3.6,20-4.7,28.4-3c3,0.6,5.7,1.4,8.1,2.5c2.4,1.1,4.5,2.5,6.1,4c0.8,0.7,1.5,1.5,2,2.3c0.4,0.5,0.7,1.1,1,1.7
			c-0.7,1.5-1.7,3-2.8,4.4C660.2,202,658.7,201,657.1,200.1z M624.8,170.8c20.3-3.9,38.8,3.6,41.3,16.8c0.1,0.4,0.2,0.8,0.2,1.2
			c-2.1-2-4.7-3.8-7.6-5.2c-3.1-1.5-6.4-2.6-10-3.3c-3.5-0.7-7.2-1-11-1c-7.6,0-15.7,1.9-22,4.5c-3.4,1.4-6.7,3.2-9.7,5.3
			c-3,2.1-5.6,4.4-7.8,7.1c-2.2,2.6-3.9,5.4-4.9,8.3c-0.4-0.9-0.7-1.9-0.8-2.9C590,188.5,604.5,174.7,624.8,170.8z M610.2,217.7
			c0.5-0.7,1-1.5,1.6-2.2c1.4-1.6,3.2-3.2,5.2-4.5c5.7-3.8,14.3-6.6,22.3-6.6c2.6,0,5.2,0.1,7.6,0.6c2.4,0.5,4.7,1.1,6.6,2.1
			c0.5,0.2,2.3,1.2,2.6,1.5c-5.7,4.6-13.4,8.2-22.3,9.9C625.3,220.1,617.1,219.7,610.2,217.7z"/>
		<path class="st2" d="M648.8,272.5c5.6-3.6,7.1-10.7,3.4-15.8c-3.7-5.1-11.2-6.4-16.8-2.8c-5.6,3.6-7.1,10.6-3.4,15.8
			C635.6,274.8,643.2,276.1,648.8,272.5z"/>
		<path class="st2" d="M643.2,243.6c3.4-2.2,5.3-5.6,5.4-9.1l-23.4,4.5c0.3,0.6,0.6,1.3,1.1,1.9C630.1,246,637.6,247.2,643.2,243.6z
			"/>
		<path class="st2" d="M640.9,282.8c-3.4,2.1-5.2,5.5-5.4,9l23.3-4.5c-0.3-0.6-0.6-1.2-1-1.8C654,280.5,646.5,279.2,640.9,282.8z"/>
		<path class="st2" d="M623.3,272.6c-4-1.7-8.6-1.2-12.1,1l3.9,20.4c5.3,1,11-1.5,13.6-6.3C631.7,281.9,629.3,275.2,623.3,272.6z"/>
		<path class="st2" d="M655.4,238.8c-3,5.7-0.6,12.4,5.4,15c4.1,1.8,8.7,1.2,12.2-1.1l-3.9-20.2C663.8,231.4,658,233.9,655.4,238.8z
			"/>
		<path class="st2" d="M671.1,261.2c-6.7,0.5-11.8,6-11.4,12.3c0.4,6.2,6.2,10.8,12.9,10.3c2.3-0.2,4.3-0.9,6.1-2.1l-3.9-20.2
			C673.6,261.2,672.4,261.1,671.1,261.2z"/>
		<path class="st2" d="M613,265.2c6.7-0.6,11.8-6,11.4-12.3c-0.4-6.2-6.2-10.8-12.9-10.3c-2.2,0.2-4.2,0.9-5.9,2l3.9,20.4
			C610.7,265.3,611.8,265.3,613,265.2z"/>
		<polygon class="st2" points="698.3,186.9 672.9,229.9 682.9,281.2 708,237.5 		"/>
	</g>
</g>
</svg>
